<svg width="400" height="400" viewBox="0 0 400 400" xmlns="http://www.w3.org/2000/svg">
<defs>
    <linearGradient id="grad1" x1="0%" y1="0%" x2="100%" y2="100%">
      <stop offset="0%" style="stop-color:#9e1b16; stop-opacity:1" />
      <stop offset="100%" style="stop-color:#050508; stop-opacity:1" />
    </linearGradient>
  </defs>
  <rect width="400" height="400" fill="#050508" />
  <circle cx="200" cy="200" r="150" fill="url(#grad1)" />
  <ellipse cx="200" cy="200" rx="60" ry="40" fill="#d8cbb4" />
  <line x1="200" y1="200" x2="200" y2="300" stroke="#9e1b16" stroke-width="4" />
  <line x1="200" y1="200" x2="300" y2="200" stroke="#9e1b16" stroke-width="4" />
  <path d="M160,160 Q200,80 240,160" fill="#ffb347" />
  <path d="M240,160 Q200,80 160,160" fill="#ffb347" />
  <path d="M160,240 Q200,280 240,240" fill="#ffb347" />
  <path d="M240,240 Q200,280 160,240" fill="#ffb347" />
  <path d="M200,160 Q240,120 200,160" fill="#c9a227" />
  <path d="M200,160 Q160,120 200,160" fill="#c9a227" />
  <path d="M200,240 Q240,280 200,240" fill="#c9a227" />
  <path d="M200,240 Q160,280 200,240" fill="#c9a227" />
  <circle cx="200" cy="200" r="10" fill="#f4f1ea" />
  <circle cx="200" cy="200" r="5" fill="#9e1b16" />
</svg>